<!-- <svg xmlns="http://www.w3.org/2000/svg" data-name="Layer 1" viewBox="0 0 24 24">
    <path fill="currentColor"
        d="M18.03079,2.44284V2.44278l-.15448.00006-.84552-.00006-.00012.00024-2.64319.00055L12.01321,6.39951,9.62961,2.44357l-2.64594-.001-.00024-.00037H2.2717v.00055L.83231,2.44266,12.029,21.55777,23.16769,2.443ZM12.02505,17.59293,4.322,4.44223H7.14566l4.88562,8.4071,4.8468-8.4071h2.80939Z" />
</svg> -->

<svg version="1.1" viewBox="0 0 261.76 226.69" xmlns="http://www.w3.org/2000/svg">
    <g transform="matrix(1.3333 0 0 -1.3333 -76.311 313.34)">
        <g transform="translate(178.06 235.01)">
            <path d="m0 0-22.669-39.264-22.669 39.264h-75.491l98.16-170.02 98.16 170.02z" fill="#41b883" />
        </g>
        <g transform="translate(178.06 235.01)">
            <path d="m0 0-22.669-39.264-22.669 39.264h-36.227l58.896-102.01 58.896 102.01z" fill="#34495e" />
        </g>
    </g>
</svg>